<svg width="474" height="510" viewBox="0 0 474 510" fill="none" xmlns="http://www.w3.org/2000/svg">
<path d="M9.1377 117.5L38.5 23.5L119 13L175 51L207.5 122L183.001 198.5M9.1377 117.5L64.5005 40L153.001 112L146.001 193.5L103.5 260.5M9.1377 117.5L3 136.5L28.5 210L103.5 260.5M103.5 260.5L153.001 322L273 347L306.5 382L346.5 447L415 495L480.5 507.5V99L403.5 145L327.5 154.5L278 198.5H183.001M103.5 260.5L143.251 229.5L183.001 198.5" stroke="#EAEAEA" stroke-width="4"/>
<path d="M279.174 37.7044C279.205 37.9327 279.389 38.1099 279.618 38.1337L311.971 41.4877L279.61 45.3217C279.384 45.3485 279.204 45.5251 279.174 45.7511L274.445 80.6789L268.531 45.7348C268.495 45.5167 268.319 45.3489 268.099 45.3219L236.872 41.4877L268.092 38.1335C268.314 38.1096 268.493 37.9412 268.531 37.721L274.445 3.27479L279.174 37.7044Z" stroke="white" stroke-linejoin="round"/>
<path d="M336.673 211.026C336.703 211.254 336.886 211.433 337.115 211.458L341.194 211.903L337.107 212.413C336.881 212.441 336.702 212.619 336.673 212.845L335.945 218.508L335.032 212.83C334.997 212.611 334.822 212.442 334.603 212.413L330.657 211.903L334.595 211.458C334.817 211.433 334.996 211.263 335.032 211.042L335.945 205.443L336.673 211.026Z" stroke="white" stroke-linejoin="round"/>
<path d="M223.235 274.029C223.267 274.257 223.45 274.435 223.679 274.458L227.971 274.903L223.672 275.413C223.445 275.439 223.266 275.616 223.235 275.842L222.445 281.679L221.455 275.826C221.418 275.608 221.242 275.44 221.022 275.413L216.872 274.903L221.015 274.458C221.237 274.434 221.417 274.266 221.454 274.046L222.445 268.275L223.235 274.029Z" stroke="white" stroke-linejoin="round"/>
<path d="M34.6047 289.717C34.636 289.946 34.8193 290.123 35.0484 290.147L41.9707 290.864L35.0412 291.685C34.8147 291.712 34.6351 291.889 34.6045 292.115L33.4451 300.679L31.993 292.098C31.9561 291.88 31.7804 291.712 31.5609 291.686L24.8724 290.864L31.5534 290.146C31.7756 290.123 31.955 289.954 31.9928 289.734L33.4451 281.275L34.6047 289.717Z" stroke="white" stroke-linejoin="round"/>
<path d="M307.674 302.581C307.705 302.809 307.889 302.987 308.118 303.01L311.971 303.41L308.11 303.867C307.884 303.894 307.704 304.071 307.674 304.297L306.945 309.679L306.031 304.28C305.995 304.062 305.819 303.894 305.599 303.867L301.872 303.41L305.592 303.01C305.814 302.986 305.993 302.818 306.031 302.598L306.945 297.275L307.674 302.581Z" stroke="white" stroke-linejoin="round"/>
<path d="M387.674 369.581C387.705 369.809 387.889 369.987 388.118 370.01L391.971 370.41L388.11 370.867C387.884 370.894 387.704 371.071 387.674 371.297L386.945 376.679L386.031 371.28C385.995 371.062 385.819 370.894 385.599 370.867L381.872 370.41L385.592 370.01C385.814 369.986 385.993 369.818 386.031 369.598L386.945 364.275L387.674 369.581Z" stroke="white" stroke-linejoin="round"/>
<path d="M412.674 239.581C412.705 239.809 412.889 239.987 413.118 240.01L416.971 240.41L413.11 240.867C412.884 240.894 412.704 241.071 412.674 241.297L411.945 246.679L411.031 241.28C410.995 241.062 410.819 240.894 410.599 240.867L406.872 240.41L410.592 240.01C410.814 239.986 410.993 239.818 411.031 239.598L411.945 234.275L412.674 239.581Z" stroke="white" stroke-linejoin="round"/>
</svg>
