<svg width="34" height="34" viewBox="0 0 34 34" fill="none" xmlns="http://www.w3.org/2000/svg">
<path d="M17.0033 9.37295C12.7822 9.37295 9.3775 12.7784 9.3775 17.0005C9.3775 21.2225 12.7822 24.628 17.0033 24.628C21.2244 24.628 24.6291 21.2225 24.6291 17.0005C24.6291 12.7784 21.2244 9.37295 17.0033 9.37295ZM17.0033 21.9594C14.2755 21.9594 12.0455 19.7355 12.0455 17.0005C12.0455 14.2655 14.2689 12.0416 17.0033 12.0416C19.7377 12.0416 21.9611 14.2655 21.9611 17.0005C21.9611 19.7355 19.7311 21.9594 17.0033 21.9594ZM26.7198 9.06094C26.7198 10.0501 25.9233 10.84 24.9411 10.84C23.9522 10.84 23.1624 10.0434 23.1624 9.06094C23.1624 8.07846 23.9588 7.28185 24.9411 7.28185C25.9233 7.28185 26.7198 8.07846 26.7198 9.06094ZM31.7705 10.8666C31.6576 8.4834 31.1134 6.37239 29.3679 4.63313C27.629 2.89387 25.5185 2.34952 23.1358 2.23003C20.6802 2.09062 13.3198 2.09062 10.8642 2.23003C8.48815 2.34288 6.37761 2.88723 4.6321 4.62649C2.88659 6.36575 2.349 8.47676 2.22953 10.86C2.09016 13.3162 2.09016 20.6781 2.22953 23.1344C2.34236 25.5175 2.88659 27.6286 4.6321 29.3678C6.37761 31.1071 8.48151 31.6514 10.8642 31.7709C13.3198 31.9103 20.6802 31.9103 23.1358 31.7709C25.5185 31.6581 27.629 31.1137 29.3679 29.3678C31.1068 27.6286 31.651 25.5175 31.7705 23.1344C31.9098 20.6781 31.9098 13.3228 31.7705 10.8666ZM28.598 25.7698C28.0803 27.0709 27.0782 28.0733 25.7707 28.5978C23.8128 29.3745 19.167 29.1952 17.0033 29.1952C14.8397 29.1952 10.1872 29.3678 8.23595 28.5978C6.93511 28.08 5.93293 27.0776 5.40862 25.7698C4.6321 23.8115 4.81129 19.1646 4.81129 17.0005C4.81129 14.8364 4.63873 10.1828 5.40862 8.23114C5.9263 6.93002 6.92847 5.92762 8.23595 5.40318C10.1938 4.62649 14.8397 4.80573 17.0033 4.80573C19.167 4.80573 23.8194 4.63313 25.7707 5.40318C27.0715 5.92098 28.0737 6.92338 28.598 8.23114C29.3745 10.1895 29.1953 14.8364 29.1953 17.0005C29.1953 19.1646 29.3745 23.8181 28.598 25.7698Z" fill="#EAEAEA"/>
</svg>
