<svg width="34" height="34" viewBox="0 0 34 34" fill="none" xmlns="http://www.w3.org/2000/svg">
<path d="M8.78422 31.8743H2.61641V12.0122H8.78422V31.8743ZM5.69699 9.30285C3.72473 9.30285 2.125 7.66926 2.125 5.69699C2.125 4.74964 2.50133 3.84109 3.17121 3.17121C3.84109 2.50133 4.74964 2.125 5.69699 2.125C6.64434 2.125 7.55289 2.50133 8.22277 3.17121C8.89265 3.84109 9.26898 4.74964 9.26898 5.69699C9.26898 7.66926 7.66859 9.30285 5.69699 9.30285ZM31.8684 31.8743H25.7138V22.2056C25.7138 19.9013 25.6673 16.9462 22.5071 16.9462C19.3003 16.9462 18.8089 19.4497 18.8089 22.0396V31.8743H12.6477V12.0122H18.5632V14.7216H18.6495C19.473 13.1611 21.4844 11.5142 24.4853 11.5142C30.7275 11.5142 31.875 15.6247 31.875 20.9638V31.8743H31.8684Z" fill="#eaeaea"/>
</svg>
