<svg width="34" height="34" viewBox="0 0 34 34" fill="none" xmlns="http://www.w3.org/2000/svg">
<path d="M5.71875 8.78906C5.20742 8.78906 4.78906 9.20742 4.78906 9.71875V11.0029L14.8123 19.2306C16.015 20.2184 17.7408 20.2184 18.9436 19.2306L28.9609 11.0029V9.71875C28.9609 9.20742 28.5426 8.78906 28.0312 8.78906H5.71875ZM4.78906 14.6112V24.5938C4.78906 25.1051 5.20742 25.5234 5.71875 25.5234H28.0312C28.5426 25.5234 28.9609 25.1051 28.9609 24.5938V14.6112L20.71 21.3863C18.4787 23.2166 15.2655 23.2166 13.04 21.3863L4.78906 14.6112ZM2 9.71875C2 7.66763 3.66763 6 5.71875 6H28.0312C30.0824 6 31.75 7.66763 31.75 9.71875V24.5938C31.75 26.6449 30.0824 28.3125 28.0312 28.3125H5.71875C3.66763 28.3125 2 26.6449 2 24.5938V9.71875Z" fill="#293544"/>
</svg>
